Coordinates
version=1
nRows=65
nColumns=12
inDegrees=yes

Units are S.I. units (second, meters, Newtons, ...)
Angles are in degrees

endheader
time	SC_y	SC_z	SC_x	AC_y	AC_z	AC_x	GH_y	GH_z	GH_yy	EL_x	PS_y
       0.0              -25.54          36.84          31.79          54.81         -7.995          14.02         -107.1          17.03          115.8          120.2          137.3
   0.03335              -25.54          36.84          31.79          54.81         -7.996          14.02         -107.1          17.04          115.8          120.2          137.3
    0.0667              -25.55          36.83           31.8          54.81         -7.997          14.01         -107.1          17.05          115.8          120.2          137.3
    0.1001              -25.55          36.83           31.8          54.81         -7.998          14.01         -107.0          17.06          115.8          120.2          137.3
    0.1334              -25.55          36.82          31.81          54.81           -8.0          14.01         -107.0          17.07          115.8          120.2          137.2
    0.1668              -25.55          36.81          31.81           54.8         -8.001          14.01         -107.0          17.08          115.8          120.2          137.2
    0.2001              -25.55          36.81          31.82           54.8         -8.003          14.01         -106.9           17.1          115.8          120.2          137.2
    0.2335              -25.55           36.8          31.83           54.8         -8.004           14.0         -106.9          17.11          115.8          120.2          137.2
    0.2668              -25.55          36.79          31.83           54.8         -8.006           14.0         -106.9          17.13          115.8          120.2          137.2
    0.3002              -25.55          36.79          31.84           54.8         -8.008           14.0         -106.8          17.14          115.8          120.2          137.1
    0.3335              -25.55          36.78          31.85          54.79          -8.01           14.0         -106.8          17.16          115.7          120.2          137.1
    0.3669              -25.55          36.77          31.86          54.79         -8.012          13.99         -106.7          17.18          115.7          120.2          137.1
    0.4002              -25.56          36.76          31.87          54.79         -8.014          13.99         -106.6           17.2          115.7          120.2          137.1
    0.4336              -25.56          36.75          31.88          54.79         -8.016          13.99         -106.6          17.22          115.7          120.2          137.0
    0.4669              -25.56          36.73          31.89          54.78         -8.019          13.98         -106.5          17.24          115.7          120.2          137.0
    0.5003              -25.56          36.72           31.9          54.78         -8.022          13.98         -106.4          17.27          115.7          120.2          137.0
    0.5336              -25.56          36.71          31.92          54.77         -8.025          13.97         -106.4          17.29          115.7          120.2          136.9
     0.567              -25.56          36.69          31.93          54.77         -8.028          13.97         -106.3          17.32          115.7          120.2          136.9
    0.6003              -25.57          36.68          31.95          54.77         -8.032          13.96         -106.2          17.35          115.7          120.2          136.8
    0.6337              -25.57          36.66          31.96          54.76         -8.036          13.96         -106.1          17.39          115.7          120.2          136.8
     0.667              -25.57          36.64          31.98          54.75         -8.041          13.95         -106.0          17.43          115.7          120.2          136.7
    0.7004              -25.57          36.62           32.0          54.75         -8.045          13.95         -105.8          17.47          115.6          120.2          136.7
    0.7337              -25.58          36.59          32.03          54.74         -8.051          13.94         -105.7          17.52          115.6          120.2          136.6
    0.7671              -25.58          36.57          32.05          54.73         -8.057          13.93         -105.5          17.57          115.6          120.3          136.5
    0.8004              -25.58          36.54          32.08          54.73         -8.063          13.92         -105.4          17.63          115.6          120.3          136.5
    0.8338              -25.59           36.5          32.11          54.72         -8.071          13.91         -105.2          17.69          115.6          120.3          136.4
    0.8671              -25.59          36.47          32.15          54.71         -8.079           13.9         -105.0          17.77          115.5          120.3          136.3
    0.9005               -25.6          36.43          32.19          54.69         -8.089          13.88         -104.7          17.85          115.5          120.3          136.1
    0.9338              -25.61          36.38          32.24          54.68         -8.099          13.87         -104.4          17.94          115.5          120.3          136.0
    0.9672              -25.61          36.33          32.29          54.66         -8.111          13.85         -104.1          18.05          115.4          120.3          135.9
     1.001              -25.62          36.27          32.35          54.65         -8.125          13.83         -103.8          18.17          115.4          120.3          135.7
     1.034              -25.63           36.2          32.41          54.63         -8.141          13.81         -103.4           18.3          115.4          120.3          135.5
     1.067              -25.64          36.12          32.49           54.6         -8.159          13.78         -102.9          18.46          115.3          120.3          135.3
     1.101              -25.65          36.02          32.58          54.58          -8.18          13.75         -102.3          18.65          115.2          120.3          135.0
     1.134              -25.67          35.91          32.69          54.55         -8.204          13.72         -101.7          18.86          115.2          120.3          134.7
     1.167              -25.69          35.78          32.82          54.51         -8.234          13.67         -101.0          19.12          115.1          120.3          134.4
     1.201              -25.71          35.63          32.97          54.46         -8.268          13.62         -100.1          19.42          115.0          120.3          134.0
     1.234              -25.73          35.45          33.14          54.41          -8.31          13.56         -98.98          19.78          114.9          120.3          133.4
     1.267              -25.76          35.22          33.36          54.35          -8.36          13.49         -97.69          20.22          114.7          120.3          132.8
     1.301               -25.8          34.95          33.62          54.27         -8.421           13.4          -96.1          20.75          114.5          120.3          132.1
     1.334              -25.84          34.62          33.95          54.17         -8.497          13.29         -94.14          21.41          114.3          120.3          131.2
     1.367               -25.9           34.2          34.36          54.05         -8.591          13.16          -91.7          22.24          114.0          120.3          130.0
     1.401              -25.97          33.67          34.87           53.9          -8.71          12.99         -88.63          23.27          113.7          120.3          128.6
     1.434              -26.06           33.0          35.52          53.71          -8.86          12.77         -84.72          24.59          113.2          120.3          126.7
     1.467              -26.17          32.14          36.35          53.46         -9.054          12.49         -79.71          26.28          112.7          120.3          124.4
     1.501              -26.32          31.04          37.42          53.15         -9.302          12.13         -73.29          28.45          111.9          120.3          121.3
     1.534              -26.51          29.64          38.79          52.75         -9.618          11.68         -65.09          31.22          111.0          120.3          117.5
     1.567              -26.74          27.87          40.51          52.24         -10.02           11.1         -54.77           34.7          109.8          120.3          112.6
     1.601              -27.03          25.72           42.6          51.62          -10.5           10.4         -42.21          38.94          108.4          120.4          106.7
     1.634              -27.36          23.22          45.03          50.91         -11.06           9.59         -27.64          43.85          106.7          120.4          99.78
     1.668              -27.72          20.52          47.66          50.13         -11.67          8.712         -11.86          49.17          104.9          120.4          92.33
     1.701              -28.09          17.82          50.29          49.35         -12.28          7.833          3.912           54.5          103.1          120.5          84.89
     1.734              -28.42          15.32          52.71          48.64         -12.85          7.022          18.48          59.41          101.4          120.5          78.02
     1.768              -28.71          13.17          54.81          48.02         -13.33          6.322          31.05          63.65          100.0          120.5          72.08
     1.801              -28.94           11.4          56.53          47.51         -13.73          5.748          41.36          67.13          98.82          120.5          67.22
     1.834              -29.13          9.999          57.89          47.11         -14.05          5.291          49.57           69.9          97.88          120.5          63.35
     1.868              -29.28          8.899          58.96           46.8         -14.29          4.933          55.99          72.06          97.15          120.6          60.32
     1.901              -29.39          8.042           59.8          46.55         -14.49          4.654          60.99          73.75          96.57          120.6          57.95
     1.934              -29.48          7.372          60.45          46.36         -14.64          4.437           64.9          75.07          96.13          120.6          56.11
     1.968              -29.55          6.845          60.96          46.21         -14.76          4.265          67.98          76.11          95.77          120.6          54.66
     2.001              -29.61          6.427          61.37          46.09         -14.85          4.129          70.42          76.93           95.5          120.6          53.51
     2.034              -29.65          6.092          61.69          45.99         -14.93           4.02          72.37          77.59          95.27          120.6          52.58
     2.068              -29.69           5.82          61.96          45.91         -14.99          3.932          73.96          78.13          95.09          120.6          51.83
     2.101              -29.72          5.598          62.17          45.85         -15.04           3.86          75.26          78.57          94.94          120.6          51.22
     2.134              -29.74          5.414          62.35           45.8         -15.08            3.8          76.33          78.93          94.82          120.6          50.71
